<?xml version="1.0" encoding="utf-8"?>
<!-- Generator: Adobe Illustrator 24.0.1, SVG Export Plug-In . SVG Version: 6.00 Build 0)  -->
<svg version="1.1" id="Layer_1" xmlns="http://www.w3.org/2000/svg" xmlns:xlink="http://www.w3.org/1999/xlink" x="0px" y="0px"
	 viewBox="0 0 50 50" style="enable-background:new 0 0 50 50;" xml:space="preserve">
<style type="text/css">
	.st0{fill:#FFFFFF;}
</style>
<title>Preview</title>
<g>
	<path class="st0" d="M37.7,26.6H12.3c-5.2,0-9.5,4.3-9.5,9.5s4.3,9.5,9.5,9.5s9.5-4.3,9.5-9.5c0-2.3-0.9-4.6-2.4-6.4h11.2
		c-3.5,3.9-3.2,9.9,0.7,13.4s9.9,3.2,13.4-0.7c3.5-3.9,3.2-9.9-0.7-13.4C42.3,27.4,40,26.6,37.7,26.6z M18.7,36.1
		c0,3.5-2.8,6.3-6.3,6.3s-6.3-2.8-6.3-6.3c0-3.5,2.8-6.3,6.3-6.3S18.7,32.5,18.7,36.1z M37.7,42.4c-3.5,0-6.3-2.8-6.3-6.3
		c0-3.5,2.8-6.3,6.3-6.3c3.5,0,6.3,2.8,6.3,6.3C44,39.6,41.2,42.4,37.7,42.4z"/>
	<path class="st0" d="M4.4,26.6C5.3,26.6,6,25.9,6,25V9.2c0-0.9,0.7-1.6,1.6-1.6h1.6c0.9,0,1.6-0.7,1.6-1.6S10,4.4,9.2,4.4H7.6
		c-2.7,0-4.8,2.1-4.8,4.8V25C2.8,25.9,3.5,26.6,4.4,26.6z"/>
	<path class="st0" d="M42.4,4.4h-1.6c-0.9,0-1.6,0.7-1.6,1.6s0.7,1.6,1.6,1.6h1.6c0.9,0,1.6,0.7,1.6,1.6V25c0,0.9,0.7,1.6,1.6,1.6
		s1.6-0.7,1.6-1.6V9.2C47.2,6.5,45.1,4.4,42.4,4.4z"/>
</g>
</svg>
